<?xml version="1.0" standalone="no"?>
<!DOCTYPE svg PUBLIC "-//W3C//DTD SVG 20010904//EN"
 "http://www.w3.org/TR/2001/REC-SVG-20010904/DTD/svg10.dtd">
<svg version="1.0" xmlns="http://www.w3.org/2000/svg"
 width="1000.000000pt" height="653.000000pt" viewBox="0 0 1000.000000 653.000000"
 preserveAspectRatio="xMidYMid meet">

<g transform="translate(0.000000,653.000000) scale(0.100000,-0.100000)"
fill="#000000" stroke="none">
<path d="M4567 6193 c-26 -26 21 -240 78 -354 73 -145 238 -274 472 -371 57
-23 100 -45 95 -48 -4 -4 -34 -14 -67 -24 -116 -35 -181 -88 -238 -194 l-34
-63 -36 60 c-67 108 -166 180 -276 201 -117 22 -331 5 -324 -25 2 -6 72 -12
170 -15 189 -6 226 -17 301 -84 72 -66 95 -139 113 -365 40 -508 -121 -1164
-443 -1806 -158 -314 -301 -556 -320 -537 -5 5 -20 74 -34 153 -28 168 -157
661 -242 934 -33 105 -92 294 -132 420 -250 801 -323 993 -434 1149 -50 71
-122 139 -139 133 -24 -8 -18 -39 15 -75 53 -58 92 -119 146 -228 98 -195 151
-346 351 -1004 175 -578 205 -678 271 -923 71 -266 96 -387 109 -527 13 -139
6 -191 -33 -248 -43 -63 -56 -65 -56 -7 0 140 -68 460 -175 830 -115 396 -416
1334 -500 1560 -175 471 -373 671 -685 692 -241 17 -444 -103 -517 -305 -59
-163 -7 -425 104 -522 67 -59 130 -83 229 -88 134 -6 193 13 265 87 71 72 101
146 102 246 1 66 -13 115 -32 115 -14 0 -21 -27 -30 -119 -12 -109 -22 -136
-74 -190 -62 -64 -105 -81 -212 -81 -142 0 -203 39 -268 170 -32 64 -32 66
-32 210 l0 145 34 63 c75 137 220 212 411 212 146 0 237 -37 348 -143 111
-107 223 -310 316 -572 128 -363 442 -1360 521 -1660 98 -367 115 -453 127
-645 6 -96 14 -179 18 -183 13 -15 64 20 101 70 75 101 196 289 294 458 421
728 638 1384 665 2010 17 389 53 518 163 592 76 51 171 67 348 60 209 -9 212
-12 105 -77 -106 -63 -185 -141 -223 -218 -24 -50 -28 -71 -31 -167 -4 -110
11 -192 33 -187 6 1 12 63 16 146 5 128 8 149 32 197 52 107 177 201 320 239
77 21 96 22 332 17 138 -2 257 -8 266 -11 12 -5 18 -27 22 -89 10 -117 8 -850
-1 -864 -6 -9 -20 3 -45 37 -68 92 -192 150 -317 150 -56 0 -167 -26 -197 -46
-37 -24 -28 -37 20 -30 115 15 178 17 245 7 137 -21 221 -87 262 -205 28 -79
39 -304 39 -801 1 -355 -9 -614 -29 -770 -74 -571 -310 -946 -772 -1225 -91
-55 -103 -58 -199 -45 -37 5 -63 4 -78 -4 -34 -18 -15 -31 45 -31 42 0 58 -5
71 -20 11 -13 30 -20 51 -20 19 0 35 -6 38 -14 8 -20 -33 -283 -52 -340 -9
-25 -27 -55 -41 -66 -53 -41 -157 -15 -165 43 -2 12 -11 23 -20 25 -23 4 -24
-28 -3 -68 40 -78 166 -80 237 -4 39 41 53 105 94 422 5 42 8 44 124 122 275
184 442 365 560 607 86 175 160 455 180 683 16 180 14 2589 -2 2595 -7 2 -132
11 -278 20 -428 25 -573 49 -831 135 -244 82 -349 146 -446 274 -65 87 -120
207 -138 301 -8 44 -17 90 -20 103 -5 21 -24 29 -38 15z"/>
<path d="M6849 5700 c-196 -18 -307 -130 -356 -360 -17 -80 -18 -173 -18
-1465 l0 -1380 41 -87 c23 -47 61 -107 84 -132 53 -57 143 -102 235 -117 110
-17 333 7 307 33 -5 5 -83 14 -173 18 -175 10 -206 16 -269 51 -46 26 -78 69
-116 154 -21 49 -28 84 -35 195 -6 76 -8 700 -7 1430 l3 1295 28 82 c36 108
76 160 150 197 56 28 66 30 237 35 99 4 182 10 185 13 12 11 -32 28 -102 38
-74 11 -71 11 -194 0z"/>
<path d="M1114 1468 c-3 -13 -24 -53 -45 -89 -54 -90 -51 -122 13 -171 l33
-25 -3 63 c-2 34 0 70 5 78 5 10 8 -5 9 -42 0 -32 7 -70 15 -86 l16 -29 7 49
c3 27 22 78 41 114 50 91 47 106 -20 136 -31 13 -57 24 -60 24 -2 0 -7 -10
-11 -22z"/>
<path d="M3181 1443 c-8 -17 -38 -195 -61 -366 -22 -169 -9 -226 49 -212 14 4
30 10 35 15 12 12 -2 30 -25 30 -11 0 -22 6 -25 14 -3 8 7 106 21 218 37 282
40 318 27 318 -6 0 -15 -8 -21 -17z"/>
<path d="M7071 1442 c-6 -11 -14 -45 -17 -76 -4 -31 -11 -59 -17 -63 -6 -3
-50 -14 -99 -24 -107 -21 -149 -46 -186 -107 -24 -41 -27 -57 -27 -132 0 -93
12 -125 61 -156 40 -27 133 -24 169 4 28 22 28 22 49 3 26 -24 66 -34 85 -22
18 11 5 31 -20 31 -26 0 -25 38 6 319 24 215 23 274 -4 223z m-36 -239 c-38
-227 -50 -259 -111 -288 -40 -19 -94 -15 -121 7 -24 20 -43 73 -43 120 1 57
28 116 74 156 35 31 40 32 121 32 l85 0 -5 -27z"/>
<path d="M8543 1435 c-65 -29 -67 -45 -18 -135 19 -36 38 -87 41 -114 l7 -49
16 29 c8 16 15 54 15 86 1 37 4 52 9 42 5 -8 7 -44 5 -78 l-3 -63 33 25 c64
49 67 81 13 171 -21 36 -42 76 -45 89 -9 27 -8 27 -73 -3z"/>
<path d="M1319 1410 c-82 -43 -140 -147 -138 -249 l0 -46 23 61 c30 81 55 117
134 191 59 56 64 63 42 62 -14 0 -41 -9 -61 -19z"/>
<path d="M1422 1395 c-81 -41 -142 -102 -178 -180 -33 -70 -30 -87 7 -32 45
68 125 136 217 185 45 24 84 47 87 53 14 22 -68 6 -133 -26z"/>
<path d="M2035 1417 c-21 -16 -12 -37 15 -37 35 0 58 -72 115 -370 15 -74 30
-139 35 -143 4 -5 17 1 28 14 40 42 262 497 262 535 0 41 -40 -24 -143 -234
-60 -123 -113 -220 -117 -215 -4 4 -27 89 -50 188 -48 203 -64 251 -91 265
-24 13 -32 13 -54 -3z"/>
<path d="M4095 1383 c-18 -18 -16 -32 8 -47 13 -8 20 -7 27 4 24 38 -5 74 -35
43z"/>
<path d="M4312 1388 c-16 -16 -15 -33 3 -48 12 -10 18 -10 30 0 20 16 19 46
-1 54 -20 8 -18 8 -32 -6z"/>
<path d="M8175 1391 c3 -6 42 -29 87 -53 92 -49 172 -117 217 -185 37 -55 40
-38 7 32 -36 78 -97 139 -178 180 -65 32 -147 48 -133 26z"/>
<path d="M8392 1337 c79 -74 104 -110 134 -191 l23 -61 0 46 c1 67 -24 139
-65 187 -39 46 -99 82 -136 82 -19 0 -12 -10 44 -63z"/>
<path d="M2876 1372 c-11 -19 -46 -319 -46 -398 0 -78 2 -85 25 -100 32 -21
103 -12 134 17 39 36 20 52 -29 24 -40 -23 -68 -18 -84 13 -13 24 -13 40 0
123 7 52 14 111 14 132 l0 37 53 0 c60 0 103 22 77 40 -8 5 -38 10 -66 10
l-51 0 5 55 c4 45 2 55 -11 55 -9 0 -18 -4 -21 -8z"/>
<path d="M1525 1360 c-14 -7 -8 -8 20 -3 22 3 42 7 44 9 9 8 -45 2 -64 -6z"/>
<path d="M1430 1324 c-103 -58 -177 -160 -187 -259 -10 -100 55 -194 169 -245
90 -40 161 -51 360 -60 340 -15 494 -70 673 -239 45 -43 63 -56 50 -36 -88
142 -251 252 -444 301 -74 19 -140 26 -295 34 -270 12 -371 40 -441 123 -43
50 -55 98 -40 163 20 90 77 159 175 213 30 17 48 31 40 31 -8 0 -35 -12 -60
-26z"/>
<path d="M1529 1321 c-131 -42 -230 -154 -228 -258 l1 -38 10 30 c22 62 90
115 173 136 31 8 66 26 93 50 49 42 122 65 178 54 50 -9 35 9 -23 29 -60 21
-134 20 -204 -3z"/>
<path d="M8141 1336 c2 -2 22 -6 44 -9 28 -5 34 -4 20 3 -19 8 -73 14 -64 6z"/>
<path d="M1825 1300 c10 -11 20 -20 23 -20 3 0 -3 9 -13 20 -10 11 -20 20 -23
20 -3 0 3 -9 13 -20z"/>
<path d="M8280 1289 c98 -54 155 -123 175 -213 15 -65 3 -113 -40 -163 -70
-83 -171 -111 -441 -123 -155 -8 -221 -15 -295 -34 -193 -49 -356 -159 -444
-301 -13 -20 5 -7 50 36 179 169 333 224 673 239 199 9 270 20 360 60 114 51
179 145 169 245 -3 29 -16 74 -30 101 -29 57 -106 133 -165 163 -64 33 -74 24
-12 -10z"/>
<path d="M7995 1294 c-56 -21 -70 -37 -23 -29 58 11 131 -11 180 -54 27 -24
62 -42 93 -50 83 -21 151 -74 173 -136 l10 -30 1 38 c4 173 -253 327 -434 261z"/>
<path d="M7894 1268 l-19 -23 23 19 c21 18 27 26 19 26 -2 0 -12 -10 -23 -22z"/>
<path d="M2685 1265 c-16 -8 -38 -20 -47 -27 -15 -10 -21 -9 -39 10 -25 28
-45 24 -42 -9 1 -13 -2 -82 -8 -154 -6 -71 -9 -152 -7 -180 l4 -50 16 35 c8
19 21 78 27 130 19 151 52 201 144 215 28 5 37 11 37 25 0 24 -40 26 -85 5z"/>
<path d="M3428 1268 c-46 -12 -112 -77 -130 -126 -7 -20 -13 -74 -13 -119 0
-73 3 -84 25 -108 55 -59 119 -70 193 -34 l44 22 22 -22 c22 -22 38 -25 65
-15 23 9 20 34 -4 34 -18 0 -20 7 -20 63 0 59 13 198 26 280 l6 37 -89 -1
c-48 -1 -105 -6 -125 -11z m162 -50 c0 -7 -6 -54 -14 -105 -22 -144 -59 -199
-143 -210 -35 -5 -45 -1 -74 25 -32 29 -34 34 -34 99 0 86 32 156 85 184 42
23 180 28 180 7z"/>
<path d="M3881 1253 l-45 -26 -14 21 c-32 49 -40 28 -52 -157 -6 -80 -13 -163
-16 -183 -5 -30 -2 -38 9 -38 19 0 21 7 47 144 34 178 52 206 138 221 32 5 42
11 42 26 0 28 -55 25 -109 -8z"/>
<path d="M4081 1228 c-27 -134 -42 -322 -27 -347 11 -16 93 -14 99 3 8 19 -1
26 -35 26 -26 0 -28 3 -28 38 0 20 7 87 15 147 19 142 19 185 1 185 -10 0 -18
-19 -25 -52z"/>
<path d="M4295 1268 c-2 -7 -20 -130 -40 -272 -20 -143 -41 -269 -47 -279 -7
-14 -18 -18 -39 -15 -36 6 -48 -8 -23 -27 27 -21 70 -18 92 5 23 24 44 136 72
372 24 204 25 228 5 228 -9 0 -17 -6 -20 -12z"/>
<path d="M4565 1266 c-51 -22 -110 -90 -128 -147 -31 -95 -18 -178 37 -228 22
-21 36 -25 90 -25 45 0 72 6 91 18 27 18 29 18 66 -4 41 -22 79 -20 79 5 0 7
-10 15 -22 17 -22 3 -23 6 -21 93 2 50 9 131 17 180 7 50 11 93 9 98 -7 12
-186 7 -218 -7z m167 -41 c6 -6 -17 -164 -32 -216 -6 -21 -27 -52 -50 -73 -52
-46 -108 -50 -145 -10 -67 73 -33 243 58 288 30 15 157 23 169 11z"/>
<path d="M5567 1233 c-3 -26 -9 -105 -13 -174 -8 -155 2 -183 67 -193 49 -8
105 1 137 21 21 13 28 12 67 -7 43 -21 85 -20 85 1 0 6 -14 15 -31 21 l-31 11
7 61 c4 33 13 105 21 158 18 124 18 148 0 148 -20 0 -35 -50 -50 -178 -16
-125 -29 -151 -92 -182 -58 -29 -98 -26 -124 8 -19 23 -21 35 -16 82 4 30 9
96 12 145 6 82 5 92 -13 108 -20 17 -20 17 -26 -30z"/>
<path d="M6127 1255 c-46 -30 -49 -31 -65 -5 -21 34 -32 13 -32 -63 0 -40 -7
-115 -15 -167 -17 -113 -19 -160 -4 -160 19 0 38 68 53 185 18 146 38 172 144
190 33 5 42 11 40 23 -5 29 -77 27 -121 -3z"/>
<path d="M6415 1266 c-106 -33 -139 -86 -140 -228 0 -89 2 -98 25 -123 55 -59
119 -70 193 -34 l44 22 22 -22 c22 -22 38 -25 65 -15 23 9 20 34 -4 34 -18 0
-20 7 -20 63 0 59 13 198 26 280 l6 37 -89 -1 c-48 0 -106 -6 -128 -13z m165
-53 c0 -51 -31 -199 -50 -237 -47 -97 -171 -101 -210 -7 -9 23 -9 45 0 99 21
127 61 161 188 162 62 0 72 -2 72 -17z"/>
<path d="M7355 1275 c-5 -2 -22 -6 -37 -9 -41 -9 -98 -65 -124 -121 -26 -55
-32 -143 -13 -192 31 -82 128 -116 210 -74 38 20 43 21 66 6 27 -18 84 -17 90
2 2 6 -6 13 -19 15 -20 3 -23 9 -26 58 -3 49 6 146 25 278 l6 42 -84 -1 c-46
0 -88 -2 -94 -4z m125 -67 c-1 -48 -30 -198 -44 -226 -22 -43 -79 -82 -118
-82 -71 0 -114 61 -104 148 8 65 35 121 76 156 28 23 40 26 111 26 75 0 79 -1
79 -22z"/>
<path d="M838 1203 c-21 -8 -38 -19 -38 -24 0 -5 42 -6 93 -3 82 6 99 3 162
-19 l70 -26 -30 25 c-70 57 -183 78 -257 47z"/>
<path d="M8715 1170 c-27 -11 -63 -31 -80 -44 l-30 -25 70 26 c63 22 80 25
163 19 50 -3 92 -2 92 3 0 15 -79 41 -123 40 -23 0 -64 -9 -92 -19z"/>
<path d="M830 1145 c-82 -23 -175 -83 -157 -101 3 -4 48 8 99 26 126 44 252
52 322 21 67 -29 41 0 -30 35 -67 33 -157 40 -234 19z"/>
<path d="M8705 1113 c-45 -16 -115 -58 -115 -68 0 -2 21 5 47 17 69 30 196 22
321 -22 51 -18 96 -29 100 -25 12 12 -60 64 -118 86 -79 29 -173 34 -235 12z"/>
<path d="M1055 1018 c-2 -7 -9 -31 -16 -53 -6 -22 -25 -67 -42 -100 -56 -111
-39 -186 53 -233 36 -18 61 -22 130 -22 l85 0 -41 20 c-22 11 -51 35 -64 52
-24 33 -44 108 -29 108 5 0 9 -6 9 -14 0 -20 38 -64 83 -97 45 -32 68 -38 45
-11 -36 41 -48 81 -48 164 0 105 -15 132 -102 178 -43 23 -57 25 -63 8z"/>
<path d="M8614 982 c-89 -50 -104 -75 -104 -180 0 -83 -12 -123 -48 -164 -23
-27 0 -21 45 11 45 33 83 77 83 97 0 8 4 14 9 14 15 0 -5 -75 -29 -108 -13
-17 -42 -41 -64 -52 l-41 -20 85 0 c69 0 94 4 130 22 90 47 109 123 55 228
-16 30 -36 80 -46 110 -9 30 -23 56 -30 57 -8 1 -28 -5 -45 -15z"/>
<path d="M850 900 c-19 -35 -28 -110 -18 -152 12 -55 42 -94 88 -118 53 -27
58 -25 21 9 -47 44 -61 88 -61 191 0 89 -9 110 -30 70z"/>
<path d="M1250 891 c0 -95 65 -186 158 -222 63 -24 103 -26 422 -19 142 3 206
0 276 -13 97 -18 216 -56 274 -89 l35 -20 -35 31 c-142 126 -282 167 -610 181
-273 12 -376 40 -474 130 -41 38 -46 40 -46 21z"/>
<path d="M8850 800 c0 -103 -14 -147 -61 -191 -37 -34 -32 -36 21 -9 46 24 76
63 88 118 14 61 -11 172 -38 172 -6 0 -10 -39 -10 -90z"/>
<path d="M8440 845 c-41 -42 -130 -88 -215 -110 -37 -10 -138 -19 -265 -25
-328 -14 -468 -55 -610 -181 l-35 -31 35 20 c58 33 177 71 274 89 70 13 134
16 276 13 319 -7 359 -5 422 19 76 29 132 92 149 165 16 74 10 83 -31 41z"/>
<path d="M470 691 c-44 -83 62 -191 231 -237 83 -22 287 -24 424 -4 l100 15
-140 6 c-229 10 -347 53 -469 168 -59 56 -81 71 -105 71 -20 0 -34 -7 -41 -19z"/>
<path d="M790 664 c0 -38 59 -90 122 -109 53 -15 196 -19 253 -6 20 5 -5 9
-78 13 -125 7 -197 35 -242 93 -31 42 -55 46 -55 9z"/>
<path d="M9115 610 c-123 -116 -241 -159 -470 -169 l-140 -6 100 -15 c137 -20
341 -18 425 4 84 23 153 60 195 108 61 66 59 140 -3 146 -28 3 -41 -6 -107
-68z"/>
<path d="M8885 625 c-45 -58 -117 -86 -242 -93 -73 -4 -98 -8 -78 -13 57 -13
200 -9 253 6 63 19 122 71 122 109 0 37 -24 33 -55 -9z"/>
<path d="M1765 634 c-16 -3 -145 -28 -285 -56 -140 -28 -311 -56 -380 -63
l-125 -13 141 -1 c172 -1 299 11 507 49 86 16 201 32 255 36 181 12 393 -27
546 -101 62 -30 67 -31 41 -10 -51 42 -191 105 -293 131 -75 20 -128 26 -237
29 -77 2 -153 1 -170 -1z"/>
<path d="M7666 600 c-144 -23 -327 -93 -401 -155 -26 -21 -21 -20 41 10 153
74 365 113 546 101 54 -4 169 -20 255 -36 208 -38 335 -50 507 -49 l141 1
-130 14 c-71 7 -242 36 -380 64 -210 43 -271 52 -385 55 -74 2 -162 0 -194 -5z"/>
<path d="M1208 563 c6 -2 18 -2 25 0 6 3 1 5 -13 5 -14 0 -19 -2 -12 -5z"/>
<path d="M828 533 c7 -3 16 -2 19 1 4 3 -2 6 -13 5 -11 0 -14 -3 -6 -6z"/>
<path d="M1911 525 c-93 -21 -152 -42 -283 -101 -64 -30 -147 -62 -185 -72
l-67 -19 57 -22 c87 -32 134 -40 227 -41 110 0 178 18 320 85 153 73 220 89
335 82 50 -3 101 -8 115 -11 14 -4 5 4 -20 16 -39 20 -60 23 -165 23 -114 0
-126 -2 -246 -42 -147 -49 -251 -69 -306 -58 -35 7 -32 9 52 21 50 8 164 35
254 60 152 43 170 46 255 42 68 -3 107 -11 156 -31 35 -14 66 -25 68 -22 9 9
-149 74 -215 89 -88 20 -263 20 -352 1z"/>
<path d="M8498 533 c6 -2 18 -2 25 0 6 3 1 5 -13 5 -14 0 -19 -2 -12 -5z"/>
<path d="M868 523 c7 -3 16 -2 19 1 4 3 -2 6 -13 5 -11 0 -14 -3 -6 -6z"/>
<path d="M918 513 c12 -2 30 -2 40 0 9 3 -1 5 -23 4 -22 0 -30 -2 -17 -4z"/>
<path d="M1465 476 c-255 -82 -388 -204 -388 -355 0 -31 5 -68 11 -83 11 -26
16 -28 70 -28 l58 0 -4 65 c-10 160 89 292 295 396 93 47 88 47 -42 5z"/>
<path d="M7453 491 c-67 -17 -209 -78 -201 -87 2 -2 33 9 68 23 49 20 88 28
156 31 85 4 103 1 255 -42 90 -25 205 -52 254 -60 84 -12 87 -14 52 -21 -55
-11 -159 9 -306 58 -120 40 -132 42 -246 42 -105 0 -126 -3 -165 -23 -25 -12
-34 -20 -20 -16 14 3 66 8 115 11 115 7 182 -9 335 -82 142 -67 210 -85 320
-85 93 1 140 9 227 41 l57 22 -67 19 c-38 10 -123 43 -189 74 -189 86 -267
106 -433 110 -112 3 -154 0 -212 -15z"/>
<path d="M8888 503 c7 -3 16 -2 19 1 4 3 -2 6 -13 5 -11 0 -14 -3 -6 -6z"/>
<path d="M8848 493 c7 -3 16 -2 19 1 4 3 -2 6 -13 5 -11 0 -14 -3 -6 -6z"/>
<path d="M8778 483 c12 -2 30 -2 40 0 9 3 -1 5 -23 4 -22 0 -30 -2 -17 -4z"/>
<path d="M8223 442 c200 -103 297 -227 297 -382 l0 -60 60 0 59 0 11 41 c8 30
8 55 0 92 -29 136 -158 242 -380 311 -129 41 -131 41 -47 -2z"/>
<path d="M510 450 c-25 -16 0 -42 66 -70 54 -23 72 -25 199 -25 112 1 158 5
233 24 51 13 92 25 89 27 -2 2 -40 -1 -84 -6 -99 -13 -238 0 -371 35 -108 28
-111 28 -132 15z"/>
<path d="M9085 405 c-125 -34 -271 -48 -369 -35 -44 5 -81 8 -83 6 -3 -2 38
-14 89 -27 75 -19 121 -23 233 -24 127 0 145 2 199 25 66 28 91 54 66 70 -21
13 -33 12 -135 -15z"/>
<path d="M1150 368 c-135 -76 -190 -146 -190 -239 0 -47 5 -63 26 -89 46 -54
59 -39 59 70 0 86 3 100 27 142 15 25 53 69 85 97 31 28 55 51 52 51 -2 -1
-29 -15 -59 -32z"/>
<path d="M1025 369 c-16 -5 -81 -18 -143 -28 -62 -11 -124 -26 -137 -35 -14
-9 -36 -38 -49 -65 -14 -26 -36 -62 -50 -79 -15 -16 -26 -32 -26 -34 0 -3 24
-5 53 -4 28 0 82 -4 118 -8 86 -11 116 6 159 86 32 59 84 119 130 151 31 20
-63 -19 -162 -69 -40 -20 -67 -30 -60 -23 6 7 60 37 120 65 100 49 117 64 47
43z"/>
<path d="M8573 320 c31 -28 70 -73 85 -98 24 -42 27 -56 26 -134 l-1 -88 28 0
c40 0 59 33 59 100 0 94 -58 165 -195 240 l-60 32 58 -52z"/>
<path d="M8752 296 c60 -28 114 -58 120 -65 7 -7 -20 3 -60 23 -99 50 -193 89
-162 69 46 -32 98 -92 130 -151 43 -80 73 -97 159 -86 36 4 90 8 119 8 28 -1
52 1 52 4 0 2 -11 18 -26 34 -14 17 -36 53 -50 79 -13 27 -35 56 -49 65 -13 9
-74 24 -134 34 -60 10 -127 23 -148 29 -70 20 -59 10 49 -43z"/>
</g>
</svg>
